<svg width="20" height="20" viewBox="0 0 20 20" fill="none" xmlns="http://www.w3.org/2000/svg">
<path d="M0 10C0 4.47715 4.47715 0 10 0V0C15.5228 0 20 4.47715 20 10V10C20 15.5228 15.5228 20 10 20V20C4.47715 20 0 15.5228 0 10V10Z" fill="#8E9AE8"/>
<path d="M15.4829 15.1724C15.4829 15.431 15.4311 15.5862 15.276 15.7414C15.1208 15.8966 14.9656 15.9483 14.707 15.9483C14.5518 15.9483 14.3966 15.8966 14.2932 15.7931C14.138 15.6897 14.0863 15.5862 13.9829 15.431L10.0001 5.5L8.55182 9.17241H9.27595C9.68975 9.17241 10.0518 9.53448 10.0518 9.94828C10.0518 10.3621 9.68975 10.6724 9.27595 10.7241H7.93113L6.01733 15.4828C5.96561 15.6379 5.86216 15.7931 5.70699 15.8448C5.60354 15.9483 5.44837 16 5.2932 16C5.03458 16 4.8794 15.9483 4.72423 15.7931C4.56906 15.6379 4.51733 15.4828 4.51733 15.2241C4.51733 15.1207 4.51733 15.0172 4.56906 14.9138L6.32768 10.7241H5.60354C5.18975 10.7241 4.82768 10.3621 4.82768 9.94828C4.82768 9.53448 5.18975 9.22414 5.60354 9.17241H7.00009L8.81044 4.77586C9.06906 4.25862 9.3794 4 9.84492 4H10.207C10.6725 4 11.0346 4.25862 11.2415 4.77586L15.4311 14.9138C15.4829 14.9655 15.4829 15.069 15.4829 15.1724Z" fill="white"/>
</svg>
