<svg width="20" height="20" viewBox="0 0 20 20" fill="none" xmlns="http://www.w3.org/2000/svg">
<path d="M0 10C0 4.47715 4.47715 0 10 0V0C15.5228 0 20 4.47715 20 10V10C20 15.5228 15.5228 20 10 20V20C4.47715 20 0 15.5228 0 10V10Z" fill="#44C19E"/>
<path d="M13.8339 6.17609C13.2506 4.85334 11.9102 4.57053 10.2692 4.8445L9.74191 2.79999L8.4987 3.1211L9.0172 5.15973C8.69019 5.24221 8.35435 5.31292 8.02145 5.40719L7.50296 3.38035L6.25975 3.70146L6.78708 5.74598C6.519 5.82257 4.2771 6.39704 4.2771 6.39704L4.61883 7.72863C4.61883 7.72863 5.53209 7.47233 5.52325 7.49295C6.02996 7.36038 6.26859 7.61374 6.38054 7.85236L7.82996 13.4556C7.84764 13.6177 7.81818 13.8946 7.47055 13.9889C7.49117 14.0006 6.56613 14.2216 6.56613 14.2216L6.70165 15.7741C6.70165 15.7741 8.92293 15.2056 9.21458 15.1319L9.7478 17.2L10.991 16.8789L10.4578 14.7961C10.7995 14.7165 11.1324 14.634 11.4565 14.5486L11.9868 16.6196L13.23 16.2985L12.6967 14.2334C14.6116 13.7679 15.9638 12.5601 15.6869 10.7129C15.5102 9.59933 14.2935 8.68608 13.283 8.58297C13.9046 8.03207 14.2198 7.22781 13.8339 6.17609ZM13.2359 11.0517C13.4833 12.8812 10.9409 13.1051 10.1013 13.326L9.37072 10.5892C10.2133 10.3682 12.8175 9.44025 13.2359 11.0517ZM11.7039 7.32503C11.9661 8.95121 9.79199 9.13976 9.09085 9.31946L8.42505 6.83599C9.12914 6.66218 11.1707 5.81963 11.7039 7.32503Z" fill="white"/>
</svg>
