<svg width="20" height="20" viewBox="0 0 20 20" fill="none" xmlns="http://www.w3.org/2000/svg">
<path d="M0 10C0 4.47715 4.47715 0 10 0V0C15.5228 0 20 4.47715 20 10V10C20 15.5228 15.5228 20 10 20V20C4.47715 20 0 15.5228 0 10V10Z" fill="#F2D86D"/>
<path d="M6.04845 9.99999L4.43205 11.6314L2.80005 9.99999L4.43145 8.36859L6.04845 9.99999ZM10 6.04839L12.784 8.83239L14.416 7.20159L11.617 4.43139L10 2.79999L8.36865 4.43139L5.58465 7.21539L7.21545 8.84739L10 6.04779V6.04839ZM15.5686 8.36859L13.9378 9.99999L15.5686 11.6314L17.2 9.99999L15.5686 8.36859ZM10 13.9372L7.20165 11.1532L5.58405 12.784L8.36805 15.568L10 17.2L11.6314 15.5686L14.4016 12.7846L12.7846 11.1526L10 13.9384V13.9372ZM10 11.617L11.6314 9.98619L10 8.36799L8.36865 9.99999L10 11.617Z" fill="white"/>
</svg>
