<svg width="20" height="20" viewBox="0 0 20 20" fill="none" xmlns="http://www.w3.org/2000/svg">
<path d="M0 10C0 4.47715 4.47715 0 10 0V0C15.5228 0 20 4.47715 20 10V10C20 15.5228 15.5228 20 10 20V20C4.47715 20 0 15.5228 0 10V10Z" fill="#F7AA4D"/>
<path d="M15.079 8.59511C15.3133 7.07316 14.1417 6.25365 12.5601 5.72682L13.0873 3.67804L11.8572 3.38535L11.33 5.3756C10.9785 5.31706 10.6857 5.19999 10.3342 5.14145L10.8614 3.09267L9.63126 2.79999L9.10407 4.84877C8.81118 4.79023 8.57687 4.7317 8.28399 4.67316L6.52667 4.2634L6.17521 5.55121L7.11244 5.78535C7.63964 5.90243 7.69821 6.25365 7.69821 6.48779L7.11244 8.82926C7.17102 8.82926 7.17102 8.82926 7.2296 8.88779C7.17102 8.88779 7.17102 8.88779 7.11244 8.82926L6.29236 12.1073C6.23378 12.2829 6.05805 12.5171 5.70659 12.4L4.76935 12.1658L4.125 13.6293L5.76516 14.039C6.05805 14.0975 6.35094 14.2146 6.64382 14.2732L6.17521 16.3805L7.40533 16.6732L7.93252 14.6244C8.28399 14.7415 8.63545 14.8 8.92834 14.8585L8.40114 16.9073L9.63126 17.2L10.1585 15.0927C12.3258 15.5024 13.9074 15.3268 14.6103 13.3951C15.1375 11.8146 14.6103 10.9366 13.4388 10.3512C14.2589 10.2341 14.9032 9.7073 15.079 8.59511ZM12.2087 12.6341C11.7986 14.2146 9.16265 13.3366 8.34257 13.161L9.04549 10.4097C9.86557 10.5854 12.6187 10.9951 12.2087 12.6341ZM12.5601 8.53657C12.2087 9.94145 10.0413 9.23901 9.2798 9.0634L9.92415 6.54633C10.6857 6.72194 12.9702 7.07316 12.5601 8.53657Z" fill="white"/>
</svg>
