<svg width="20" height="20" viewBox="0 0 20 20" fill="none" xmlns="http://www.w3.org/2000/svg">
<path d="M0 10C0 4.47715 4.47715 0 10 0V0C15.5228 0 20 4.47715 20 10V10C20 15.5228 15.5228 20 10 20V20C4.47715 20 0 15.5228 0 10V10Z" fill="#60BFBF"/>
<path d="M16 13.8004C16 13.9004 16 13.9504 16 14.0504L13.85 14.3503C13.4 12.7506 12.6 11.3009 11.55 10.0012L5.55 16L4 14.4503L10 8.45148C8.75 7.40168 7.25 6.60184 5.65 6.15193L5.85 4.55224V4.00235C8.3 3.95236 10.55 4.70221 12.3 6.15193L13.1 5.35208L14.65 6.90178L13.85 7.70162C15.25 9.45128 16 11.6509 16 13.8004Z" fill="white"/>
</svg>
