<svg width="20" height="20" viewBox="0 0 20 20" fill="none" xmlns="http://www.w3.org/2000/svg">
<path d="M0 10C0 4.47715 4.47715 0 10 0V0C15.5228 0 20 4.47715 20 10V10C20 15.5228 15.5228 20 10 20V20C4.47715 20 0 15.5228 0 10V10Z" fill="#666666"/>
<path d="M4.85714 4.90224L8.42105 4.09021L12.2105 7.87968L10.9925 9.09773L7.8797 5.98495L6.25564 6.34585L5.89474 7.96991L4.67669 9.18795L4 8.51126L4.85714 4.90224Z" fill="white"/>
<path d="M8.42111 16L4.8572 15.188L4.04517 11.6241L7.83464 7.83459L9.05268 9.05264L5.9399 12.1654L6.30081 13.7895L7.92487 14.1504L9.14291 15.3684L8.42111 16Z" fill="white"/>
<path d="M15.1429 15.188L11.579 16L7.78955 12.2106L9.0076 10.9925L12.1204 14.1053L13.7444 13.7444L14.1053 12.1203L15.3234 10.9023L16.0001 11.579L15.1429 15.188Z" fill="white"/>
<path d="M12.1654 12.2105L10.9474 10.9925L14.0602 7.8797L13.6993 6.25564L12.0752 5.89474L10.8572 4.67669L11.5339 4L15.0978 4.81203L15.9098 8.37594L12.1654 12.2105Z" fill="white"/>
</svg>
