<?xml version="1.0" encoding="utf-8"?>
<!-- Generator: Adobe Illustrator 25.0.0, SVG Export Plug-In . SVG Version: 6.00 Build 0)  -->
<svg version="1.1" id="图层_1" xmlns="http://www.w3.org/2000/svg" xmlns:xlink="http://www.w3.org/1999/xlink" x="0px" y="0px"
	 viewBox="0 0 48 48" style="enable-background:new 0 0 48 48;" xml:space="preserve">
<style type="text/css">
	.st0{fill:url(#SVGID_1_);}
	.st1{fill-rule:evenodd;clip-rule:evenodd;fill:#606063;}
	.st2{fill:#BEBEBE;}
	.st3{fill:#FAF9FA;}
	.st4{fill-rule:evenodd;clip-rule:evenodd;fill:#633001;}
	.st5{fill:#FEDC90;}
	.st6{fill:#D1884F;}
	.st7{fill-rule:evenodd;clip-rule:evenodd;fill:url(#SVGID_2_);}
	.st8{fill:#9E7200;}
	.st9{fill:#F0B90B;}
</style>
<g>
	
		<linearGradient id="SVGID_1_" gradientUnits="userSpaceOnUse" x1="873.7499" y1="-820.3601" x2="873.7499" y2="-1000.3601" gradientTransform="matrix(0.2667 0 0 -0.2667 -209 -218.7627)">
		<stop  offset="0" style="stop-color:#54DADE"/>
		<stop  offset="0.7622" style="stop-color:#24C7D6"/>
	</linearGradient>
	<circle class="st0" cx="24" cy="24" r="24"/>
	<path class="st1" d="M8.4,26.6c0,0.1,0,0.2,0,0.3c0,0.3,0,0.7,0.1,1H8.4v0.5c0,0.3,0,0.5,0,0.8c0.6,4.9,7.4,8.7,15.5,8.7
		s14.9-3.8,15.5-8.7c0-0.2,0-0.5,0-0.8v-0.5h-0.1c0.1-0.3,0.1-0.7,0.1-1c0-0.1,0-0.2,0-0.3c-0.2-5.1-7.1-9.2-15.6-9.2
		S8.6,21.5,8.4,26.6z M7.1,26.6c0.1-3.1,2.2-5.7,5.2-7.5c3.1-1.9,7.2-3,11.7-3s8.6,1.1,11.7,3c2.9,1.8,5.1,4.4,5.2,7.5h0v1.8
		c0,3.2-2.2,5.9-5.2,7.8c-3.1,1.9-7.2,3-11.7,3s-8.6-1.1-11.7-3c-3-1.8-5.2-4.6-5.2-7.8L7.1,26.6L7.1,26.6z"/>
	<path class="st2" d="M39.6,28.4c0,5.2-7,9.5-15.6,9.5c-8.6,0-15.6-4.2-15.6-9.5v-1.5h31.2V28.4z"/>
	<path class="st3" d="M39.6,26.9c0,5.2-7,9.5-15.6,9.5c-8.6,0-15.6-4.2-15.6-9.5s7-9.5,15.6-9.5C32.6,17.4,39.6,21.7,39.6,26.9z"/>
	<path class="st4" d="M10.8,24.2C10.8,24.2,10.8,24.2,10.8,24.2c0,0.4,0.1,0.9,0.2,1.3h-0.2v0.6c0,0.2,0,0.5,0.1,0.7
		c0.6,3.6,5.6,6.4,11.6,6.4s11-2.8,11.6-6.4c0-0.2,0.1-0.5,0.1-0.7v-0.6H34c0.1-0.4,0.2-0.8,0.2-1.2c0,0,0,0,0,0c0,0,0,0,0,0
		c0-3.9-5.2-7.1-11.7-7.1S10.8,20.3,10.8,24.2z M9.5,24.2L9.5,24.2l0,1.8c0,2.6,1.7,4.7,4,6.1c2.3,1.4,5.5,2.3,8.9,2.3
		s6.6-0.8,8.9-2.3c2.3-1.4,4-3.6,4-6.1v-1.8c0,0,0,0,0,0c0-2.6-1.7-4.7-4-6.1c-2.3-1.4-5.5-2.3-8.9-2.3s-6.6,0.8-8.9,2.3
		C11.2,19.5,9.5,21.7,9.5,24.2z"/>
	<path class="st5" d="M34.2,26.1c0,3.9-5.2,7.1-11.7,7.1S10.8,30,10.8,26.1v-1.7h23.4V26.1z"/>
	<path class="st6" d="M34.2,24.2c0,3.9-5.2,7.1-11.7,7.1s-11.7-3.2-11.7-7.1c0-3.9,5.2-7.1,11.7-7.1S34.2,20.3,34.2,24.2z"/>
	<path class="st4" d="M14.3,20.4C14.3,20.4,14.3,20.4,14.3,20.4c0,0.4,0.1,0.9,0.2,1.3h-0.2v0.6c0,0.2,0,0.5,0.1,0.7
		C15,26.6,20,29.4,26,29.4s11-2.8,11.6-6.4c0-0.2,0.1-0.5,0.1-0.7v-0.6h-0.2c0.1-0.4,0.2-0.8,0.2-1.2c0,0,0,0,0,0c0,0,0,0,0,0
		c0-3.9-5.2-7.1-11.7-7.1S14.3,16.5,14.3,20.4z M13,20.4L13,20.4l0,1.8c0,2.6,1.7,4.7,4,6.1c2.3,1.4,5.5,2.3,8.9,2.3
		s6.6-0.8,8.9-2.3c2.3-1.4,4-3.6,4-6.1v-1.8c0,0,0,0,0,0c0-2.6-1.7-4.7-4-6.1C32.6,12.8,29.4,12,26,12s-6.6,0.8-8.9,2.3
		C14.8,15.7,13.1,17.8,13,20.4z"/>
	<path class="st5" d="M37.7,22.2c0,3.9-5.2,7.1-11.7,7.1c-6.4,0-11.7-3.2-11.7-7.1v-1.7h23.4V22.2z"/>
	<path class="st6" d="M37.7,20.4c0,3.9-5.2,7.1-11.7,7.1c-6.4,0-11.7-3.2-11.7-7.1c0-3.9,5.2-7.1,11.7-7.1
		C32.4,13.3,37.7,16.5,37.7,20.4z"/>
	<path class="st4" d="M10.8,16.6C10.8,16.6,10.8,16.6,10.8,16.6c0,0.4,0.1,0.9,0.2,1.3h-0.2v0.6c0,0.2,0,0.5,0.1,0.7
		c0.6,3.6,5.6,6.4,11.6,6.4s11-2.8,11.6-6.4c0-0.2,0.1-0.5,0.1-0.7v-0.6H34c0.1-0.4,0.2-0.8,0.2-1.2c0,0,0,0,0,0c0,0,0,0,0,0
		c0-3.9-5.2-7.1-11.7-7.1S10.8,12.6,10.8,16.6z M9.5,16.6L9.5,16.6l0,1.8c0,2.6,1.7,4.7,4,6.1c2.3,1.4,5.5,2.3,8.9,2.3
		s6.6-0.8,8.9-2.3c2.3-1.4,4-3.6,4-6.1v-1.8c0,0,0,0,0,0c0-2.6-1.7-4.7-4-6.1c-2.3-1.4-5.5-2.3-8.9-2.3s-6.6,0.8-8.9,2.3
		C11.2,11.9,9.5,14,9.5,16.6z"/>
	<path class="st5" d="M34.2,18.4c0,3.9-5.2,7.1-11.7,7.1s-11.7-3.2-11.7-7.1v-1.7h23.4V18.4z"/>
	<path class="st6" d="M34.2,16.6c0,3.9-5.2,7.1-11.7,7.1s-11.7-3.2-11.7-7.1c0-3.9,5.2-7.1,11.7-7.1S34.2,12.6,34.2,16.6z"/>
	
		<linearGradient id="SVGID_2_" gradientUnits="userSpaceOnUse" x1="860.9882" y1="-868.5009" x2="860.9882" y2="-924.1497" gradientTransform="matrix(0.2667 0 0 -0.2667 -209 -218.7627)">
		<stop  offset="0" style="stop-color:#9F4A08"/>
		<stop  offset="0.3705" style="stop-color:#7D3900"/>
		<stop  offset="1" style="stop-color:#8D4104"/>
	</linearGradient>
	<path class="st7" d="M13.6,17c0,1.3,1,2.5,2.5,3.3l-1,1.8l0,0h0v4.6c0,0.6,0.5,1.1,1.1,1.1c0.6,0,1.1-0.5,1.1-1.1v-3.6l1.1-1.9
		c0.7,0.2,1.5,0.2,2.3,0.2c3.9,0,7-1.9,7-4.3s-3.1-4.3-7-4.3C16.7,12.7,13.6,14.6,13.6,17z"/>
	<path class="st4" d="M16,20.3c-0.2-0.1-0.3-0.2-0.5-0.3c-1.2-0.8-2-1.8-2-3c0-2.4,3.1-4.3,7-4.3s7,1.9,7,4.3c0,2.4-3.1,4.3-7,4.3
		c-0.8,0-1.6-0.1-2.3-0.2l-1.1,1.9v3.6c0,0.6-0.5,1.1-1.1,1.1c-0.6,0-1.1-0.5-1.1-1.1v-4.6L16,20.3z M13.9,22.1v4.6
		c0,1.2,1,2.2,2.2,2.2c1.2,0,2.2-1,2.2-2.2v-3.3l0.6-1c0.6,0.1,1.1,0.1,1.7,0.1c2.1,0,4.1-0.5,5.6-1.4c1.5-0.9,2.6-2.3,2.6-4
		c0-1.7-1.1-3.1-2.6-4c-1.5-0.9-3.4-1.4-5.6-1.4S16.5,12.1,15,13c-1.5,0.9-2.6,2.3-2.6,4c0,1.5,0.9,2.8,2.1,3.7L14,21.5
		c0,0.1-0.1,0.2-0.1,0.3C13.9,21.9,13.9,22,13.9,22.1z"/>
	<path class="st8" d="M15.8,15.2c0,1.2,1.6,2.2,3.5,2.2c1.9,0,3.5-1,3.5-2.2c0-1.2-1.6-2.2-3.5-2.2C17.3,13,15.8,14,15.8,15.2z"/>
	<path class="st8" d="M15.8,14.2h7v1h-7V14.2z"/>
	<path class="st9" d="M15.8,14.2c0,1.2,1.6,2.2,3.5,2.2c1.9,0,3.5-1,3.5-2.2c0-1.2-1.6-2.2-3.5-2.2C17.3,12,15.8,13,15.8,14.2z"/>
	<path class="st8" d="M17.9,14l1-0.6c0.2-0.1,0.5-0.1,0.7,0l1,0.6c0.2,0.1,0.2,0.4,0,0.5l-1,0.6c-0.2,0.1-0.5,0.1-0.7,0l-1-0.6
		C17.7,14.4,17.7,14.1,17.9,14z"/>
	<path class="st4" d="M16.2,11.7c0.8-0.5,1.9-0.8,3.1-0.8c1.2,0,2.2,0.3,3.1,0.8c0.8,0.5,1.5,1.4,1.5,2.5v1c0,1.1-0.7,2-1.5,2.5
		c-0.8,0.5-1.9,0.8-3.1,0.8c-1.2,0-2.2-0.3-3.1-0.8c-0.8-0.5-1.5-1.4-1.5-2.5v-1C14.6,13.1,15.4,12.2,16.2,11.7z M19.3,12
		c-1.9,0-3.5,1-3.5,2.2v1c0,1.2,1.6,2.2,3.5,2.2s3.5-1,3.5-2.2v-1C22.8,13,21.2,12,19.3,12z"/>
</g>
</svg>
