<svg width="20" height="20" viewBox="0 0 20 20" fill="none" xmlns="http://www.w3.org/2000/svg">
<path d="M0 10C0 4.47715 4.47715 0 10 0V0C15.5228 0 20 4.47715 20 10V10C20 15.5228 15.5228 20 10 20V20C4.47715 20 0 15.5228 0 10V10Z" fill="#54D3AE"/>
<path d="M10.8346 16.0254C10.8346 16.1133 10.7907 16.2451 10.7467 16.3329C10.571 16.5965 10.2635 16.6843 9.99995 16.5086L5.38749 13.6972C5.07999 13.4776 4.86035 13.1262 4.86035 12.7747V10.6222C4.86035 10.5344 4.90428 10.4465 4.90428 10.4026C5.03606 10.183 5.29963 10.0951 5.51927 10.2269L10.3514 13.0383C10.6149 13.214 10.7907 13.5215 10.7907 13.829V16.0254H10.8346Z" fill="white"/>
<path d="M13.0309 14.9272C13.0309 15.0589 12.943 15.1907 12.8552 15.2347L11.8009 15.8496H11.757V13.3457C11.757 13.0382 11.5812 12.7307 11.3177 12.555L7.05664 10.0072V7.1958C7.05664 7.10794 7.10057 7.02008 7.10057 6.97616C7.23235 6.75652 7.49592 6.66866 7.71556 6.80044L12.5477 9.61185C12.8112 9.78756 12.9869 10.0951 12.9869 10.4026V14.9272H13.0309Z" fill="white"/>
<path d="M15.1395 13.6533C15.1395 13.7851 15.0517 13.9168 14.9638 13.9608L13.9535 14.5318V9.96331C13.9535 9.65582 13.7777 9.34832 13.5142 9.17261L9.16528 6.58084V3.8573C9.16528 3.76944 9.20921 3.68158 9.20921 3.63766C9.341 3.41801 9.60456 3.33016 9.82421 3.46194L14.6563 6.27335C14.9199 6.44906 15.0956 6.75656 15.0956 7.06405V13.6533H15.1395Z" fill="white"/>
</svg>
