<svg width="20" height="20" viewBox="0 0 20 20" fill="none" xmlns="http://www.w3.org/2000/svg">
<path d="M0 10C0 4.47715 4.47715 0 10 0V0C15.5228 0 20 4.47715 20 10V10C20 15.5228 15.5228 20 10 20V20C4.47715 20 0 15.5228 0 10V10Z" fill="#53A1E0"/>
<path d="M3.53015 10.2141C3.67288 9.73835 3.81561 8.88196 5.1002 8.88196H10.0482C10.0482 8.88196 10.0006 9.11984 9.85791 9.78592C9.71517 10.2617 9.57244 11.1181 8.28786 11.1181H3.33984C3.33984 11.1657 3.38742 10.8802 3.53015 10.2141Z" fill="white"/>
<path d="M16.4711 10.2141C16.0429 12.4026 15.0438 14.0678 13.3311 14.8766C12.5698 15.2572 11.8562 15.4 10.1434 15.4H5.29053L5.71872 13.1639H9.95308C12.4747 13.1639 13.1883 12.022 13.5214 11.0705C13.6641 10.6898 13.9496 9.59557 13.9496 8.92949C13.9496 7.64491 13.3311 6.8361 11.1425 6.8361H6.76542L7.19361 4.59998H12.0465C16.3284 4.59998 17.0896 6.93125 16.4711 10.2141Z" fill="white"/>
</svg>
