<svg width="20" height="20" viewBox="0 0 20 20" fill="none" xmlns="http://www.w3.org/2000/svg">
<path d="M0 10C0 4.47715 4.47715 0 10 0V0C15.5228 0 20 4.47715 20 10V10C20 15.5228 15.5228 20 10 20V20C4.47715 20 0 15.5228 0 10V10Z" fill="#4D88FF"/>
<path d="M7.91777 15.4C5.53811 15.4 3.57031 13.4779 3.57031 11.0525C3.57031 9.31353 4.34828 7.94065 6.17879 7.16269L3.57031 4.59998H6.13302L10.4805 8.94743H7.78048C6.59065 8.94743 5.62963 9.90845 5.62963 11.0983C5.62963 12.2881 6.59065 13.2491 7.78048 13.2491H8.64997L10.8008 15.4H7.91777Z" fill="white"/>
<path d="M16.3838 15.4H13.8211L9.47366 11.0525H12.1737C13.3635 11.0525 14.3245 10.0915 14.3245 8.90167C14.3245 7.71184 13.3635 6.75082 12.1737 6.75082H11.3042L9.15332 4.59998H12.0821C14.4618 4.59998 16.4296 6.52201 16.4296 8.94743C16.4296 10.6864 15.6516 12.0593 13.8211 12.8373L16.3838 15.4Z" fill="white"/>
</svg>
