<svg width="20" height="20" viewBox="0 0 20 20" fill="none" xmlns="http://www.w3.org/2000/svg">
<path d="M0 10C0 4.47715 4.47715 0 10 0V0C15.5228 0 20 4.47715 20 10V10C20 15.5228 15.5228 20 10 20V20C4.47715 20 0 15.5228 0 10V10Z" fill="#E8E9E9"/>
<path d="M9.99979 8.91999L11.8448 7.88499L9.99979 6.80499L8.15479 7.88499L9.99979 8.91999Z" fill="#1B1F26" fill-opacity="0.15"/>
<path d="M9.99978 10.135L5.49979 7.56999L9.99978 5.00499L13.4198 6.98499L15.2648 5.90499L9.99978 2.79999L3.65479 6.44499V8.55999L9.99978 12.25L14.4998 9.68499V12.52L9.99978 15.085L5.49979 12.52V11.035L3.65479 9.95499V13.555L9.99978 17.155V17.2L16.3448 13.555V6.44499L9.99978 10.135Z" fill="#1B1F26" fill-opacity="0.15"/>
</svg>
