<svg width="20" height="20" viewBox="0 0 20 20" fill="none" xmlns="http://www.w3.org/2000/svg">
<path d="M0 10C0 4.47715 4.47715 0 10 0V0C15.5228 0 20 4.47715 20 10V10C20 15.5228 15.5228 20 10 20V20C4.47715 20 0 15.5228 0 10V10Z" fill="#E651A0"/>
<path d="M10.8811 15.3495C10.7765 15.8202 10.4104 16.0817 9.99194 15.9771C9.57353 15.8725 9.31202 15.5064 9.41662 15.088C9.46892 14.7219 9.88734 14.408 10.3058 14.5126C10.7242 14.6172 10.9857 14.9834 10.8811 15.3495Z" fill="white"/>
<path d="M10.4103 13.1528C10.4103 13.1528 9.835 13.2051 9.67809 13.2051C8.99817 13.3097 8.47515 13.7804 8.31825 14.4604C8.31825 14.4604 8.10904 15.2972 8.10904 15.4018C8.10904 15.4541 8.10904 15.4541 8.10904 15.4541C8.05674 15.8202 7.69063 16.0294 7.37682 15.9248C7.32451 15.9248 7.32451 15.9248 7.32451 15.9248C7.0107 15.8725 6.8015 15.5064 6.9061 15.1926C6.9061 15.1403 8.31825 8.49795 8.31825 8.49795C8.37055 8.18414 8.73666 7.97493 9.05047 8.02724C9.36428 8.07954 9.57349 8.44565 9.52119 8.75946L8.94587 11.4792L8.84127 12.0022V12.0545H8.89357C9.05047 12.0545 9.15508 12.0022 9.25968 12.0022C9.57349 11.9499 10.2011 11.8976 10.2011 11.8976C11.8748 11.793 13.2346 10.4331 13.2869 8.70716C13.3392 6.8766 11.9271 5.35985 10.0965 5.30754C8.26595 5.25524 6.74919 6.66739 6.69689 8.49795C6.64459 8.86406 6.69689 9.28248 6.8538 9.64859C6.9584 9.9624 6.8015 10.3285 6.48769 10.4331C6.17388 10.5377 5.80776 10.3285 5.70316 10.0147C5.54625 9.54399 5.44165 9.07327 5.44165 8.55025C5.44165 6.03977 7.48142 4 9.9919 4C12.2932 4.0523 14.2283 5.83056 14.5422 8.18414C14.7514 10.6946 12.9208 12.9436 10.4103 13.1528Z" fill="white"/>
</svg>
