<svg width="20" height="20" viewBox="0 0 20 20" fill="none" xmlns="http://www.w3.org/2000/svg">
<path d="M0 10C0 4.47715 4.47715 0 10 0V0C15.5228 0 20 4.47715 20 10V10C20 15.5228 15.5228 20 10 20V20C4.47715 20 0 15.5228 0 10V10Z" fill="#60B860"/>
<path d="M5.55469 10.6421C7.12133 11.4741 8.75597 12.3447 10.0184 13.0182L14.4452 10.6421C12.8423 13.0234 11.5067 15.006 10.0184 17.2C8.52722 15.01 6.88049 12.5947 5.55469 10.6421ZM5.72466 9.9853L10.023 7.6916L14.2649 9.96801L10.0253 12.264L5.72466 9.9853ZM10.0184 6.95699L5.55469 9.30658L9.9988 2.79999L14.4452 9.32098L10.0184 6.95699Z" fill="white"/>
</svg>
