<svg width="20" height="20" viewBox="0 0 20 20" fill="none" xmlns="http://www.w3.org/2000/svg">
<path d="M0 10C0 4.47715 4.47715 0 10 0V0C15.5228 0 20 4.47715 20 10V10C20 15.5228 15.5228 20 10 20V20C4.47715 20 0 15.5228 0 10V10Z" fill="#8EC9ED"/>
<path d="M15.1429 14.2L14.6286 15.7429C14.5429 15.9143 14.4572 16 14.2 16H5.02861L6.57146 11.5429L4.85718 11.9714L5.20003 10.9429L6.91432 10.5143L9.14289 4.25714C9.22861 4.08571 9.31432 4 9.57146 4H11.8857C12.0572 4 12.2286 4.08571 12.2286 4.25714V4.34286L10.4286 9.65714L12.1429 9.22857L11.7143 10.2571L10 10.6857L8.88575 13.9429H14.8857C14.9715 13.8571 15.1429 14.0286 15.1429 14.2Z" fill="white"/>
</svg>
