<svg width="20" height="20" viewBox="0 0 20 20" fill="none" xmlns="http://www.w3.org/2000/svg">
<path d="M0 10C0 4.47715 4.47715 0 10 0V0C15.5228 0 20 4.47715 20 10V10C20 15.5228 15.5228 20 10 20V20C4.47715 20 0 15.5228 0 10V10Z" fill="#996DE4"/>
<path d="M16.8625 10.2318V13.3476C16.8625 13.5536 16.811 13.7339 16.708 13.8884C16.605 14.0687 16.4763 14.1974 16.296 14.3004L13.6179 15.8455C13.4634 15.9485 13.2574 16 13.0771 16C12.8711 16 12.6909 15.9485 12.5363 15.8455L9.85824 14.3004C9.70373 14.1974 9.54922 14.0687 9.44622 13.8884C9.34322 13.7082 9.29171 13.5279 9.29171 13.3476V12.4721L10.6565 11.6738V13.1931L13.0514 14.5837L15.4462 13.1931V10.3863L13.0771 8.99571L7.43764 12.2661C7.25738 12.3691 7.07712 12.4206 6.89686 12.4206C6.71661 12.4206 6.5106 12.3691 6.35609 12.2661L3.67798 10.721C3.52347 10.618 3.36897 10.4893 3.29171 10.309C3.18871 10.1288 3.13721 9.9485 3.13721 9.76824V6.65236C3.13721 6.44635 3.18871 6.26609 3.29171 6.11159C3.39472 5.93133 3.52347 5.80257 3.70373 5.69957L6.38184 4.15451C6.53635 4.0515 6.74236 4 6.92261 4C7.12862 4 7.30888 4.0515 7.46339 4.15451L10.1415 5.69957C10.296 5.80257 10.4505 5.93133 10.5535 6.11159C10.6565 6.29185 10.708 6.4721 10.708 6.65236V7.5279L9.31746 8.32618V6.80687L6.89686 5.41631L4.50201 6.80687V9.58798L6.89686 10.9785L12.5363 7.70815C12.7166 7.60515 12.8969 7.55365 13.0771 7.55365C13.2574 7.55365 13.4634 7.60515 13.6179 7.70815L16.296 9.25322C16.4505 9.35622 16.605 9.48498 16.6823 9.66524C16.811 9.84549 16.8625 10.0515 16.8625 10.2318Z" fill="white"/>
</svg>
