<svg width="20" height="20" viewBox="0 0 20 20" fill="none" xmlns="http://www.w3.org/2000/svg">
<path d="M0 10C0 4.47715 4.47715 0 10 0V0C15.5228 0 20 4.47715 20 10V10C20 15.5228 15.5228 20 10 20V20C4.47715 20 0 15.5228 0 10V10Z" fill="#49D4F2"/>
<path d="M3.17773 5.24874V5.20001H3.22647H6.24778C7.02748 5.20001 7.66098 5.4924 8.19702 6.1259L8.92799 7.00306L7.56352 8.75737L6.49144 7.44164C6.39398 7.34417 6.29652 7.29544 6.15032 7.29544H3.2752C3.22647 7.29544 3.22647 7.29544 3.22647 7.29544V7.24671L3.17773 5.24874Z" fill="white"/>
<path d="M16.8224 7.14923V7.19796H16.7737H13.8985C13.7524 7.19796 13.6549 7.24669 13.5574 7.34415L11.4133 9.97562L13.5087 12.5584C13.6062 12.6558 13.7036 12.7046 13.8498 12.7046H16.7249C16.7737 12.7046 16.7737 12.7046 16.7737 12.7046V12.7533V14.6538V14.7025H16.7249H13.7036C12.9239 14.7025 12.2904 14.4101 11.7544 13.7766L10.0001 11.7299L8.24575 13.8741C7.70971 14.5076 7.02748 14.8 6.24778 14.8H3.22647C3.17773 14.8 3.17773 14.8 3.17773 14.8V14.7513V12.8507V12.802H3.22647H6.10159C6.24779 12.802 6.34525 12.7533 6.44271 12.6558L8.48941 10.1218L11.7057 6.17461C12.2417 5.5411 12.9239 5.24872 13.7036 5.24872H16.7249C16.7737 5.24872 16.7737 5.24872 16.7737 5.24872V5.29745L16.8224 7.14923Z" fill="white"/>
</svg>
