<svg width="20" height="20" viewBox="0 0 20 20" fill="none" xmlns="http://www.w3.org/2000/svg">
<path d="M0 10C0 4.47715 4.47715 0 10 0V0C15.5228 0 20 4.47715 20 10V10C20 15.5228 15.5228 20 10 20V20C4.47715 20 0 15.5228 0 10V10Z" fill="#F255A0"/>
<path d="M7.52418 4.01347C7.32194 3.97302 7.32194 3.97302 7.40284 3.97302C7.56463 3.93257 7.92868 3.97302 8.21183 4.05392C8.81857 4.21572 9.38486 4.57976 9.9916 5.2674L10.1534 5.46965L10.3556 5.4292C11.286 5.2674 12.2972 5.38875 13.1062 5.79325C13.3085 5.91459 13.6725 6.11684 13.7129 6.15729C13.7129 6.15729 13.7534 6.27864 13.7534 6.39999C13.7938 6.80448 13.7938 7.12808 13.6725 7.37077C13.5916 7.49212 13.5916 7.53257 13.6321 7.65392C13.6725 7.73482 13.7534 7.81572 13.8747 7.81572C14.077 7.81572 14.2792 7.49212 14.4006 7.00673L14.441 6.80448L14.5219 6.88538C14.9669 7.37077 15.2905 8.09886 15.3309 8.58426V8.70561L15.2905 8.58426C15.1691 8.38201 15.0478 8.26066 14.886 8.13931C14.6028 7.93707 14.2792 7.85617 13.4703 7.81572C12.7422 7.77527 12.2972 7.69437 11.8927 7.57302C11.2051 7.33032 10.841 7.04718 9.9916 5.87415C9.62756 5.38875 9.38486 5.10561 9.18261 4.86291C8.69722 4.37752 8.17138 4.13482 7.52418 4.01347Z" fill="white"/>
<path d="M13.8749 5.14604C13.8749 4.82244 13.9153 4.57974 14.0367 4.3775C14.0771 4.2966 14.1176 4.2157 14.1176 4.2157C14.1176 4.2157 14.1176 4.2966 14.0771 4.33705C13.9962 4.53929 13.9962 4.82244 14.0367 5.10559C14.0771 5.51008 14.1176 5.55053 14.5221 5.99547C14.7243 6.19772 14.9265 6.44042 15.0074 6.56177L15.1692 6.76401L15.0074 6.64266C14.8456 6.48087 14.4007 6.11682 14.3198 6.07637C14.2794 6.03592 14.2389 6.03592 14.1985 6.07637C14.158 6.11682 14.158 6.15727 14.158 6.39997C14.158 6.80446 14.1176 7.04716 13.9558 7.28986C13.8749 7.4112 13.8749 7.4112 13.9558 7.24941C13.9962 7.12806 13.9962 7.08761 13.9962 6.72356C13.9962 5.95502 13.9153 5.79323 13.3895 5.46963C13.2681 5.38873 13.0254 5.26738 12.9041 5.22693C12.7827 5.14604 12.6614 5.10559 12.6614 5.10559C12.6614 5.10559 13.1872 5.22693 13.3895 5.30783C13.6726 5.42918 13.7535 5.42918 13.794 5.42918C13.8344 5.42918 13.8749 5.34828 13.8749 5.14604Z" fill="white"/>
<path d="M7.84807 6.44047C7.48403 5.91463 7.24133 5.14609 7.32223 4.53934V4.3371H7.40313C7.56493 4.37755 7.80762 4.45845 7.96942 4.53934C8.29302 4.74159 8.45481 5.02474 8.61661 5.75283C8.65706 5.95507 8.73796 6.19777 8.73796 6.27867C8.77841 6.40002 8.94021 6.72361 9.06156 6.92586C9.14245 7.04721 9.102 7.12811 8.89976 7.12811C8.57616 7.16856 8.13122 6.84496 7.84807 6.44047Z" fill="white"/>
<path d="M13.4299 10.2831C11.731 9.59544 11.1243 8.9887 11.1243 7.93702C11.1243 7.77522 11.1243 7.65387 11.1243 7.65387C11.1243 7.65387 11.2052 7.69432 11.2861 7.77522C11.6097 8.05836 12.0142 8.17971 13.0658 8.34151C13.6726 8.42241 14.0366 8.50331 14.3602 8.62466C15.4119 8.9887 16.0187 9.71679 16.1804 10.6876C16.2209 10.9707 16.1804 11.4966 16.14 11.7797C16.0995 11.982 15.8973 12.3865 15.8569 12.4269C15.8569 12.4269 15.8164 12.3865 15.8164 12.3056C15.8164 11.9415 15.6142 11.5775 15.331 11.2943C15.0479 10.9707 14.5625 10.728 13.4299 10.2831Z" fill="white"/>
<path d="M12.2569 10.5662C12.2569 10.4449 12.2165 10.2831 12.176 10.2022L12.1356 10.0404L12.2165 10.1213C12.3378 10.2427 12.4187 10.4045 12.4996 10.6471C12.5401 10.8089 12.5401 10.8494 12.5401 11.1325C12.5401 11.4157 12.5401 11.4561 12.4996 11.6179C12.4187 11.8606 12.2974 12.0224 12.1356 12.2247C11.812 12.5483 11.4075 12.7101 10.8412 12.791C10.7198 12.791 10.4367 12.8314 10.194 12.8314C9.54679 12.8719 9.1423 12.9528 8.7378 13.0741C8.69735 13.0741 8.61646 13.1146 8.61646 13.1146C8.61646 13.1146 8.85915 12.9528 9.0614 12.8314C9.34455 12.6696 9.66814 12.5887 10.3558 12.4674C10.6794 12.4269 11.0434 12.346 11.1243 12.3056C11.9738 12.0629 12.3783 11.3752 12.2569 10.5662Z" fill="white"/>
<path d="M13.0252 11.982C12.823 11.4966 12.7421 11.0112 12.8634 10.5662C12.8634 10.5258 12.9039 10.4854 12.9039 10.4854C12.9039 10.4854 12.9848 10.5258 13.0252 10.5662C13.1466 10.6471 13.3488 10.7685 13.8746 11.0516C14.5623 11.4561 14.9668 11.7393 15.2499 12.0629C15.4926 12.346 15.6544 12.7101 15.6949 13.1146C15.7353 13.3573 15.6949 13.9236 15.6544 14.1662C15.4522 14.8943 15.0477 15.5011 14.4005 15.8651C14.3196 15.9056 14.2387 15.946 14.2387 15.946C14.2387 15.946 14.2791 15.8651 14.3196 15.7438C14.5218 15.2988 14.5623 14.8539 14.4005 14.3685C14.3196 14.0854 14.1173 13.7213 13.7128 13.1146C13.2679 12.4269 13.1466 12.2247 13.0252 11.982Z" fill="white"/>
<path d="M6.67498 14.6517C7.32217 14.1258 8.09071 13.7213 8.8188 13.6C9.1424 13.5595 9.62779 13.5595 9.91094 13.6404C10.3559 13.7618 10.7604 14.0449 11.0031 14.3685C11.2053 14.6921 11.2862 14.9753 11.4076 15.582C11.448 15.8247 11.4885 16.0674 11.4885 16.1079C11.5694 16.4315 11.6907 16.6742 11.8525 16.7955C12.1357 16.9977 12.5806 16.9977 13.0255 16.8359C13.1064 16.7955 13.1873 16.7955 13.1873 16.7955C13.1873 16.7955 12.9851 16.9573 12.8233 17.0382C12.621 17.1595 12.4188 17.2 12.2166 17.2C11.8121 17.2 11.448 16.9977 11.1649 16.5528C11.1244 16.4719 11.0031 16.2292 10.8817 15.9865C10.5986 15.2584 10.4368 15.0562 10.0727 14.8135C9.74914 14.6112 9.38509 14.5708 9.0615 14.7326C8.657 14.9348 8.5761 15.4607 8.85925 15.7438C8.9806 15.8652 9.18285 15.9865 9.34464 16.027C9.66824 16.0674 9.95138 15.8247 9.95138 15.5011C9.95138 15.2989 9.87049 15.1775 9.66824 15.0562C9.38509 14.9348 9.10195 15.0562 9.10195 15.3393C9.10195 15.4607 9.1424 15.5416 9.26375 15.582C9.34464 15.6225 9.34464 15.6225 9.26375 15.6225C9.02105 15.582 8.94015 15.2584 9.1424 15.0562C9.38509 14.8135 9.87049 14.9348 10.0727 15.2584C10.1536 15.3798 10.1536 15.6629 10.0727 15.8652C9.91094 16.2697 9.50644 16.4719 9.10195 16.3506C8.8188 16.2697 8.69745 16.1888 8.37386 15.8247C7.76712 15.1775 7.56487 15.0562 6.67498 14.9348L6.51318 14.8944L6.67498 14.6517Z" fill="white"/>
<path fill-rule="evenodd" clip-rule="evenodd" d="M8.25223 8.38199C8.04998 8.46289 7.84773 8.66514 7.80728 8.90783C7.76683 9.02918 7.80728 9.31233 7.84773 9.39323C7.92863 9.51457 8.00953 9.55502 8.25223 9.55502C8.73762 9.55502 9.14211 9.35278 9.18256 9.06963C9.22301 8.86738 9.06121 8.58424 8.77807 8.42244C8.65672 8.38199 8.37357 8.34154 8.25223 8.38199ZM8.77807 8.82693C8.85897 8.70558 8.81852 8.62469 8.69717 8.54379C8.45447 8.38199 8.13088 8.50334 8.13088 8.74603C8.13088 8.86738 8.29268 8.98873 8.49492 8.98873C8.57582 8.98873 8.73762 8.90783 8.77807 8.82693Z" fill="white"/>
<path fill-rule="evenodd" clip-rule="evenodd" d="M3.96478 2.84044C3.96478 2.84044 7.24118 6.92583 7.36253 7.08763C7.48388 7.24943 7.44343 7.41122 7.24118 7.57302C7.11983 7.65392 6.87714 7.69437 6.75579 7.69437C6.63444 7.69437 6.47264 7.61347 6.35129 7.49212C6.27039 7.41122 5.9468 6.92583 5.17826 5.71235C4.61197 4.78201 4.12657 4.05392 4.12657 4.01347C4.08612 4.01347 4.08612 4.01347 5.13781 5.91459C5.785 7.12808 6.0277 7.53257 6.0277 7.61347C6.0277 7.73482 5.98725 7.77527 5.8659 7.93707C5.6232 8.22021 5.5423 8.50336 5.46141 9.1101C5.38051 9.79774 5.13781 10.2831 4.49062 11.1326C4.08612 11.618 4.04567 11.6989 3.96478 11.9011C3.84343 12.1438 3.80298 12.3056 3.80298 12.5888C3.80298 12.9123 3.80298 13.1146 3.92433 13.4382C4.00523 13.7213 4.08612 13.9236 4.32882 14.2472C4.53107 14.5708 4.65242 14.8135 4.65242 14.8944C4.65242 14.9753 4.65242 14.9753 4.97601 14.8944C5.7041 14.7326 6.31084 14.409 6.63444 14.0449C6.83669 13.8022 6.87714 13.6809 6.87714 13.3573C6.87714 13.155 6.87714 13.1146 6.83669 12.9932C6.75579 12.791 6.59399 12.6292 6.22994 12.3865C5.785 12.0629 5.58275 11.7798 5.50185 11.4562C5.46141 11.173 5.50185 10.9708 5.785 10.4045C6.06815 9.83819 6.1086 9.59549 6.14905 9.0292C6.1895 8.66516 6.22994 8.50336 6.31084 8.38201C6.43219 8.26066 6.51309 8.22021 6.79624 8.17976C7.24118 8.09886 7.52433 8.01796 7.72657 7.77527C7.92882 7.57302 8.00972 7.41122 8.00972 7.12808V6.92583L7.88837 6.80448L4.04567 2.79999L3.96478 2.84044ZM4.77376 13.0337C4.85466 12.8719 4.81421 12.6697 4.65242 12.5483C4.49062 12.4674 4.28837 12.5079 4.28837 12.6292C4.28837 12.6697 4.28837 12.7101 4.36927 12.7101C4.45017 12.7505 4.45017 12.791 4.40972 12.9123C4.36927 12.9932 4.36927 13.1146 4.40972 13.155C4.53107 13.2359 4.69287 13.1955 4.77376 13.0337Z" fill="white"/>
</svg>
