<svg width="20" height="20" viewBox="0 0 20 20" fill="none" xmlns="http://www.w3.org/2000/svg">
<path d="M0 10C0 4.47715 4.47715 0 10 0V0C15.5228 0 20 4.47715 20 10V10C20 15.5228 15.5228 20 10 20V20C4.47715 20 0 15.5228 0 10V10Z" fill="#4584CA"/>
<path d="M8.04995 17.148C8.04995 17.408 7.87662 17.538 7.61662 17.4514C4.45328 16.4547 2.19995 13.508 2.19995 9.99804C2.19995 6.53137 4.49662 3.5847 7.61662 2.5447C7.83328 2.45804 8.04995 2.63137 8.04995 2.84804V3.4547C8.04995 3.62804 7.91995 3.80137 7.78995 3.8447C5.31995 4.7547 3.49995 7.13804 3.49995 9.9547C3.49995 12.7714 5.27662 15.1547 7.78995 16.0647C7.96328 16.108 8.04995 16.3247 8.04995 16.4547V17.148Z" fill="white"/>
<path d="M10.6499 14.8948C10.6499 15.0681 10.5199 15.2414 10.3032 15.2414H9.65324C9.47991 15.2414 9.30658 15.1114 9.30658 14.8948V13.8548C7.87657 13.6814 7.18324 12.8581 7.00991 11.7748C6.96658 11.6014 7.13991 11.4281 7.31324 11.4281H8.04991C8.22324 11.4281 8.35324 11.5581 8.35324 11.6881C8.48324 12.3381 8.87324 12.8148 9.99991 12.8148C10.8232 12.8148 11.4299 12.3381 11.4299 11.6448C11.4299 10.9514 11.0832 10.6914 9.82658 10.4748C8.00658 10.2148 7.13991 9.69476 7.13991 8.26476C7.13991 7.18143 7.96324 6.31476 9.26324 6.14143V5.14476C9.26324 4.97143 9.39324 4.7981 9.60991 4.7981H10.2599C10.4332 4.7981 10.6066 4.9281 10.6066 5.14476V6.18476C11.6466 6.3581 12.3399 6.96476 12.5566 7.96143C12.5999 8.13476 12.4699 8.3081 12.2532 8.3081H11.5599C11.4299 8.3081 11.2999 8.22143 11.2566 8.09143C11.0832 7.48476 10.6066 7.18143 9.82658 7.18143C8.95991 7.18143 8.52658 7.61476 8.52658 8.1781C8.52658 8.78476 8.78658 9.0881 10.0866 9.30476C11.8632 9.56476 12.8166 10.0414 12.8166 11.5581C12.8166 12.7281 11.9499 13.6381 10.6066 13.8548V14.8948H10.6499Z" fill="white"/>
<path d="M12.383 17.4514C12.1664 17.5381 11.9497 17.3647 11.9497 17.1481V16.5414C11.9497 16.3681 12.0797 16.1947 12.2097 16.1514C14.6797 15.2414 16.4997 12.8581 16.4997 10.0414C16.4997 7.22475 14.723 4.84141 12.2097 3.93141C12.0797 3.84475 11.9497 3.67141 11.9497 3.49808V2.89141C11.9497 2.63141 12.123 2.50141 12.383 2.58808C15.5464 3.58475 17.7997 6.53141 17.7997 10.0414C17.7997 13.5081 15.503 16.4547 12.383 17.4514Z" fill="white"/>
</svg>
