<svg width="20" height="20" viewBox="0 0 20 20" fill="none" xmlns="http://www.w3.org/2000/svg">
<path d="M0 10C0 4.47715 4.47715 0 10 0V0C15.5228 0 20 4.47715 20 10V10C20 15.5228 15.5228 20 10 20V20C4.47715 20 0 15.5228 0 10V10Z" fill="#46A085"/>
<path d="M11.1474 8.24498V6.80498H14.4774V4.59998H5.52244V6.80498H8.80744V8.24498C6.10744 8.33498 4.12744 8.87498 4.12744 9.50498C4.12744 10.135 6.15244 10.675 8.80744 10.81V15.4H11.1924V10.81C13.8474 10.675 15.8724 10.18 15.8724 9.50498C15.8724 8.82998 13.8474 8.33498 11.1474 8.24498ZM11.1924 10.405C11.1474 10.405 10.7874 10.45 10.0224 10.45C9.39244 10.45 8.98744 10.45 8.80744 10.405C6.46744 10.315 4.66744 9.90998 4.66744 9.41498C4.66744 8.91998 6.42244 8.51498 8.80744 8.42498V9.99998C8.94244 9.99998 9.39244 10.045 10.0224 10.045C10.7424 10.045 11.1024 9.99998 11.1924 9.99998V8.37998C13.5324 8.46998 15.2874 8.87498 15.2874 9.36998C15.2874 9.90998 13.5324 10.315 11.1924 10.405Z" fill="white"/>
</svg>
