<svg width="20" height="20" viewBox="0 0 20 20" fill="none" xmlns="http://www.w3.org/2000/svg">
<path d="M0 10C0 4.47715 4.47715 0 10 0V0C15.5228 0 20 4.47715 20 10V10C20 15.5228 15.5228 20 10 20V20C4.47715 20 0 15.5228 0 10V10Z" fill="#E6A15C"/>
<path fill-rule="evenodd" clip-rule="evenodd" d="M9.99994 3.28838C8.82181 3.28838 7.66442 3.5985 6.64413 4.18757L6.17285 4.45967L5.62866 3.51711L6.09994 3.24501C7.28569 2.56042 8.63076 2.20001 9.99994 2.20001C11.3691 2.20001 12.7142 2.56042 13.8999 3.24501L14.3712 3.51711L13.827 4.45967L13.3558 4.18757C12.3355 3.5985 11.1781 3.28838 9.99994 3.28838Z" fill="white"/>
<path fill-rule="evenodd" clip-rule="evenodd" d="M16.7119 10.0001C16.7119 8.82193 16.4018 7.66455 15.8127 6.64425L15.5406 6.17297L16.4832 5.62878L16.7553 6.10006C17.4399 7.28581 17.8003 8.63088 17.8003 10.0001C17.8003 11.3693 17.4399 12.7143 16.7553 13.9001L16.4832 14.3713L15.5406 13.8272L15.8127 13.3559C16.4018 12.3356 16.7119 11.1782 16.7119 10.0001Z" fill="white"/>
<path fill-rule="evenodd" clip-rule="evenodd" d="M10.0001 16.7116C11.1782 16.7116 12.3356 16.4015 13.3559 15.8124L13.8272 15.5403L14.3713 16.4829L13.9001 16.755C12.7143 17.4396 11.3692 17.8 10.0001 17.8C8.63087 17.8 7.2858 17.4396 6.10006 16.755L5.62878 16.4829L6.17296 15.5403L6.64424 15.8124C7.66454 16.4015 8.82192 16.7116 10.0001 16.7116Z" fill="white"/>
<path fill-rule="evenodd" clip-rule="evenodd" d="M3.28832 10.0001C3.28832 11.1782 3.59844 12.3356 4.18751 13.3559L4.4596 13.8272L3.51705 14.3713L3.24495 13.9001C2.56036 12.7143 2.19995 11.3692 2.19995 10.0001C2.19995 8.63087 2.56036 7.2858 3.24495 6.10005L3.51705 5.62878L4.4596 6.17296L4.18751 6.64424C3.59844 7.66454 3.28832 8.82192 3.28832 10.0001Z" fill="white"/>
<path d="M12.7307 8.28063C12.6377 7.30478 11.8005 6.9795 10.7462 6.88656V5.55444H9.9245V6.87107C9.70745 6.87107 9.49039 6.87107 9.27334 6.87107V5.55444H8.45164V6.90205H6.79272V7.78496C6.79272 7.78496 7.39737 7.76947 7.38187 7.78496C7.61443 7.75398 7.81598 7.92437 7.84699 8.14122V11.8278C7.84699 11.9052 7.80047 11.9827 7.75396 12.0291C7.69195 12.0756 7.61443 12.1066 7.53691 12.1066C7.55241 12.1221 6.94776 12.1066 6.94776 12.1066L6.79272 13.0824H8.43613V14.4455H9.25784V13.0979H9.909V14.4455H10.7307V13.0979C12.1105 13.0205 13.0718 12.6797 13.1958 11.3786C13.2888 10.3408 12.8082 9.87607 12.0175 9.69019C12.4981 9.42687 12.7927 8.99316 12.7307 8.28063ZM11.5834 11.1927C11.5834 12.215 9.84698 12.0911 9.28884 12.0911V10.2943C9.83148 10.2943 11.5834 10.1239 11.5834 11.1927ZM11.1958 8.65238C11.1958 9.58177 9.73845 9.47334 9.27334 9.47334V7.83143C9.73845 7.83143 11.1958 7.69202 11.1958 8.65238Z" fill="white"/>
</svg>
