<svg width="20" height="20" viewBox="0 0 20 20" fill="none" xmlns="http://www.w3.org/2000/svg">
<path d="M0 10C0 4.47715 4.47715 0 10 0V0C15.5228 0 20 4.47715 20 10V10C20 15.5228 15.5228 20 10 20V20C4.47715 20 0 15.5228 0 10V10Z" fill="#38A5EB"/>
<path d="M5.49995 4.60004L8.37995 7.57004C9.27995 8.47004 10.63 8.47004 11.53 7.57004L14.41 4.60004H16.21L12.43 8.47004C11.08 9.91004 8.82995 9.91004 7.47995 8.47004L3.69995 4.60004H5.49995Z" fill="white"/>
<path d="M14.5 15.4L11.62 12.43C10.72 11.53 9.36995 11.53 8.46995 12.43L5.49995 15.4H3.69995L7.47995 11.53C8.82995 10.09 11.08 10.09 12.43 11.53L16.3 15.4H14.5Z" fill="white"/>
</svg>
