<svg width="20" height="20" viewBox="0 0 20 20" fill="none" xmlns="http://www.w3.org/2000/svg">
<path d="M0 10C0 4.47715 4.47715 0 10 0V0C15.5228 0 20 4.47715 20 10V10C20 15.5228 15.5228 20 10 20V20C4.47715 20 0 15.5228 0 10V10Z" fill="#3282D9"/>
<path d="M12.3398 15.4063C11.5315 16.4698 9.74486 16.8952 8.7239 16.3847C8.12834 16.1295 7.61786 15.7892 7.27754 15.2787C6.76705 14.513 6.42673 13.6196 6.80959 12.6838C6.89467 12.4285 7.02229 12.1733 7.10737 11.918C6.72451 12.0031 6.29911 12.0882 5.91625 12.1733C5.83117 11.918 5.78863 11.6628 5.74609 11.4076C5.74609 11.3225 5.78863 11.2799 5.87371 11.2374C6.76705 11.0672 7.61786 10.8971 8.5112 10.6844C8.68136 10.6418 8.7239 10.6844 8.7239 10.8545C8.76644 11.365 8.85152 11.833 8.9366 12.3434C8.97914 12.7263 9.06422 13.0666 9.10676 13.4495C9.1493 13.6196 9.10676 13.6622 8.9366 13.7047C8.68136 13.7047 8.46866 13.7473 8.21342 13.7898C8.12834 13.2793 8.0858 12.8539 8.00072 12.3434C7.6604 12.939 7.4477 13.4495 7.6604 14.0876C7.83056 14.5981 8.0858 15.0235 8.5112 15.3212C9.19184 15.7892 9.95756 15.9168 10.7658 15.5765C11.1912 15.4063 11.5741 15.066 11.8293 14.6831C12.1696 14.1301 12.2547 13.492 12.0846 12.8539C11.9144 12.2584 11.6166 11.833 11.1061 11.4926C10.936 11.4076 10.8084 11.2374 10.8509 11.0247C10.8934 10.7694 10.8509 10.5142 10.8509 10.1739C11.1487 10.344 11.3614 10.5142 11.5741 10.6844C11.8719 10.9396 12.1271 11.1949 12.3823 11.4501C12.7652 11.8755 12.9354 12.386 13.0204 12.939C13.1906 13.8749 12.9354 14.6831 12.3398 15.4063Z" fill="white"/>
<path d="M9.48975 9.91862C9.48975 8.64242 9.48975 7.36622 9.48975 6.09002C9.48975 5.87732 9.53229 5.79224 9.78753 5.79224C10.0002 5.79224 10.1704 5.79224 10.4256 5.79224V14.1301C10.1704 14.1301 9.91515 14.1301 9.65991 14.1301C9.48975 14.1301 9.53229 13.9599 9.53229 13.8748C9.48975 12.5986 9.48975 11.2799 9.48975 9.91862Z" fill="white"/>
<path d="M14.1266 8.34465C13.3609 8.64243 12.5952 8.94021 11.8294 9.19545C11.4891 9.32307 11.4891 9.28053 11.404 8.94021C11.2339 8.30211 11.0212 7.66401 10.851 7.02591C10.8085 6.85575 10.7659 6.68559 10.6809 6.47289C10.9361 6.38781 11.1913 6.30273 11.4466 6.26019C11.4891 6.26019 11.6167 6.43035 11.6593 6.51543C11.7444 6.72813 11.7869 6.98337 11.8294 7.19607C11.872 7.32369 11.9145 7.40877 11.9571 7.57893C12.2123 7.11099 12.2123 6.64305 12.1698 6.17511C12.0421 5.45193 11.6167 4.85637 10.9786 4.51605C10.6383 4.34589 10.2555 4.26081 9.83007 4.26081C8.97927 4.26081 8.34116 4.68621 7.87322 5.40939C7.36274 6.21765 7.44782 7.28115 8.08592 8.00433C8.34116 8.25957 8.5964 8.51481 8.89418 8.72751C9.02181 8.85513 9.10689 8.94021 9.10689 9.11037C9.10689 9.36561 9.10689 9.66339 9.10689 10.0037C8.85164 9.83355 8.63894 9.70593 8.46878 9.57831C8.12846 9.28053 7.78814 9.02529 7.44782 8.72751C6.97988 8.30211 6.76718 7.70655 6.6821 7.11099C6.51194 6.04749 6.85226 5.06907 7.61798 4.30335C8.46878 3.49509 9.48975 3.23984 10.5958 3.49508C11.4466 3.66525 12.0847 4.17573 12.5526 4.85637C13.0206 5.57955 13.1482 6.43035 12.978 7.28115C12.978 7.45131 12.9355 7.62147 12.8929 7.87671C13.2758 7.74909 13.6587 7.62147 14.0415 7.49385C14.1266 7.74909 14.2117 7.96179 14.2542 8.17449C14.2542 8.25957 14.2117 8.30211 14.1266 8.34465Z" fill="white"/>
</svg>
