<svg width="20" height="20" viewBox="0 0 20 20" fill="none" xmlns="http://www.w3.org/2000/svg">
<path d="M0 10C0 4.47715 4.47715 0 10 0V0C15.5228 0 20 4.47715 20 10V10C20 15.5228 15.5228 20 10 20V20C4.47715 20 0 15.5228 0 10V10Z" fill="#F4C862"/>
<path d="M17.5796 8.15003C16.8847 5.19674 14.496 2.93834 11.5427 2.3303C11.1952 2.24344 10.8478 2.24344 10.5438 2.20001C10.1963 2.20001 9.89232 2.20001 9.54488 2.20001C9.28429 2.24344 8.98028 2.24344 8.71969 2.3303C5.59268 2.98177 3.55143 4.80586 2.55252 7.80258C2.3788 8.32375 2.33537 8.84492 2.24851 9.36609C2.24851 9.40952 2.24851 9.45295 2.20508 9.49638C2.20508 9.84383 2.20508 10.1913 2.20508 10.5387C2.20508 10.5822 2.20508 10.6256 2.24851 10.669C2.29194 11.0599 2.33537 11.4508 2.42223 11.8416C3.42114 16.1847 8.0248 18.7906 12.281 17.4442C16.2332 16.2282 18.535 12.1457 17.5796 8.15003ZM10.0226 16.5322C6.41786 16.5322 3.508 13.6223 3.508 10.0176C3.508 6.4128 6.41786 3.50294 10.0226 3.50294C13.5839 3.50294 16.4938 6.45623 16.4938 10.0176C16.4938 13.6223 13.5839 16.5322 10.0226 16.5322Z" fill="white"/>
<path d="M12.8457 13.6223H10.7176V14.9252H9.37125V13.6657H7.28657V12.4496L10.457 8.06313V8.0197H7.19971V6.36933H9.32781V5.06641H10.6307V6.41276H12.8023V7.58539L9.5884 11.9719L9.54497 12.0588H12.8457V13.6223Z" fill="white"/>
</svg>
